<?xml version="1.0" encoding="UTF-8" standalone="no"?>
<!-- Uploaded to: SVG Repo, www.svgrepo.com, Generator: SVG Repo Mixer Tools -->

<svg
   aria-label="Pixelfed"
   role="img"
   viewBox="0 0 512 512"
   version="1.1"
   id="svg7"
   sodipodi:docname="pixelfed.svg"
   inkscape:version="1.4.2 (ebf0e940d0, 2025-05-08)"
   xmlns:inkscape="http://www.inkscape.org/namespaces/inkscape"
   xmlns:sodipodi="http://sodipodi.sourceforge.net/DTD/sodipodi-0.dtd"
   xmlns="http://www.w3.org/2000/svg"
   xmlns:svg="http://www.w3.org/2000/svg">
  <defs
     id="defs7" />
  <sodipodi:namedview
     id="namedview7"
     pagecolor="#505050"
     bordercolor="#eeeeee"
     borderopacity="1"
     inkscape:showpageshadow="0"
     inkscape:pageopacity="0"
     inkscape:pagecheckerboard="0"
     inkscape:deskcolor="#505050"
     inkscape:zoom="1.6074219"
     inkscape:cx="255.68894"
     inkscape:cy="290.8384"
     inkscape:window-width="1920"
     inkscape:window-height="1012"
     inkscape:window-x="0"
     inkscape:window-y="0"
     inkscape:window-maximized="1"
     inkscape:current-layer="svg7" />
  <rect
     width="512"
     height="512"
     rx="15.000001%"
     fill="#ffffff"
     id="rect1"
     x="0"
     y="0"
     style="display:none" />
  <g
     fill="#ff7722"
     id="g1"
     style="display:inline">
    <path
       id="a"
       d="M 254,256 C 286,214 277,154 234,122 191,90 126,107 94,149 l 11,-19 c 52,-63 143,-89 210,-58 50,17 78,72 62,123 -16,51 -72,78 -123,61" />
  </g>
  <use
     href="#a"
     transform="rotate(72 256 256)"
     fill="#1c3"
     id="use1" />
  <use
     href="#a"
     transform="rotate(144 256 256)"
     fill="#08f"
     id="use2" />
  <use
     href="#a"
     transform="rotate(216 256 256)"
     fill="#a3c"
     id="use3" />
  <use
     href="#a"
     transform="rotate(288 256 256)"
     fill="#e15"
     id="use4" />
  <path
     d="M101 142l1-1c32-42 93-51 135-19s50 91 18 133a96 96 0 00-15-17 84 84 0 00-117-115 87 87 0 00-22 19z"
     opacity=".3"
     id="b" />
  <g
     id="c">
    <use
       href="#b"
       transform="rotate(72 256 256)"
       id="use5" />
    <use
       href="#b"
       transform="rotate(144 256 256)"
       id="use6" />
  </g>
  <use
     href="#c"
     transform="rotate(144 256 256)"
     id="use7" />
  <path
     d="M241 297h35c33 0 60-26 60-58s-27-58-60-58h-51a34 34 0 00-34 33v131z"
     fill="#ffffff"
     id="path7" />
  <circle
     cx="256"
     cy="256"
     r="196"
     fill="none"
     stroke="#ffffff"
     stroke-width="8"
     id="circle7"
     style="display:inline" />
</svg>
